# Blender 4.1.1
# www.blender.org
mtllib player.mtl
o Cube
v -1.000000 -0.201816 1.020626
v -1.000000 -1.000338 0.803883
v -1.000000 0.389235 -0.723274
v -1.000000 -1.000338 -0.979374
v 1.000000 -0.201816 1.020626
v 1.000000 -1.000338 0.803883
v 1.000000 0.389235 -0.723274
v 1.000000 -1.000338 -0.979374
v -0.317900 0.388525 -0.721180
v -0.317900 0.982918 -0.575261
v -0.317900 0.272345 -0.378392
v -0.317900 0.866739 -0.232472
v -0.562779 0.388525 -0.721180
v -0.562779 0.982918 -0.575261
v -0.562779 0.272345 -0.378392
v -0.562779 0.866739 -0.232472
v 0.511689 0.385307 -0.711686
v 0.511689 0.999662 -0.560866
v 0.511689 0.267406 -0.363818
v 0.511689 0.881761 -0.212998
v 0.284094 0.385307 -0.711686
v 0.284094 0.999662 -0.560866
v 0.284094 0.267406 -0.363818
v 0.284094 0.881761 -0.212998
v 0.012655 -0.200471 1.016657
v -0.030707 -0.199590 1.014057
v -0.072402 -0.196980 1.006357
v -0.110829 -0.192742 0.993852
v -0.144510 -0.187038 0.977023
v -0.172152 -0.180088 0.956517
v -0.192692 -0.172159 0.933122
v -0.205340 -0.163555 0.907737
v -0.209610 -0.154608 0.881338
v -0.205340 -0.145661 0.854938
v -0.192692 -0.137057 0.829553
v -0.172152 -0.129128 0.806158
v -0.144510 -0.122178 0.785652
v -0.110829 -0.116474 0.768823
v -0.072402 -0.112236 0.756318
v -0.030707 -0.109626 0.748618
v 0.012655 -0.108745 0.746018
v 0.056017 -0.109626 0.748618
v 0.097712 -0.112236 0.756318
v 0.136139 -0.116474 0.768823
v 0.169820 -0.122178 0.785652
v 0.197462 -0.129128 0.806158
v 0.218002 -0.137057 0.829553
v 0.230650 -0.145661 0.854938
v 0.234921 -0.154608 0.881338
v 0.230650 -0.163555 0.907737
v 0.218002 -0.172159 0.933122
v 0.197462 -0.180088 0.956517
v 0.169820 -0.187038 0.977023
v 0.136139 -0.192742 0.993852
v 0.097712 -0.196980 1.006357
v 0.056017 -0.199590 1.014057
v 0.012655 0.108491 0.945926
vn -0.0000 0.9471 0.3210
vn -0.0000 0.1812 -0.9834
vn 1.0000 -0.0000 -0.0000
vn -0.0000 -1.0000 -0.0000
vn -1.0000 -0.0000 -0.0000
vn -0.0000 -0.2620 0.9651
vn -0.0000 -0.2384 0.9712
vn -0.0000 0.2384 -0.9712
vn -0.0000 -0.9471 -0.3210
vn -0.0538 0.2228 0.9734
vn -0.1623 0.2348 0.9584
vn -0.2729 0.2593 0.9265
vn -0.3860 0.2972 0.8733
vn -0.5000 0.3493 0.7924
vn -0.6093 0.4150 0.6756
vn -0.7023 0.4903 0.5161
vn -0.7617 0.5661 0.3151
vn -0.7715 0.6300 0.0887
vn -0.7278 0.6725 -0.1347
vn -0.6419 0.6927 -0.3288
vn -0.5321 0.6968 -0.4811
vn -0.4129 0.6924 -0.5917
vn -0.2926 0.6855 -0.6667
vn -0.1742 0.6794 -0.7128
vn -0.0578 0.6760 -0.7346
vn 0.0578 0.6760 -0.7346
vn 0.1742 0.6794 -0.7128
vn 0.2926 0.6855 -0.6667
vn 0.4129 0.6924 -0.5917
vn 0.5321 0.6968 -0.4811
vn 0.6419 0.6927 -0.3288
vn 0.7278 0.6725 -0.1347
vn 0.7715 0.6300 0.0887
vn 0.7617 0.5661 0.3151
vn 0.7023 0.4903 0.5161
vn 0.6093 0.4150 0.6756
vn 0.5000 0.3493 0.7924
vn 0.3860 0.2972 0.8733
vn 0.2729 0.2593 0.9265
vn 0.1623 0.2348 0.9584
vn 0.0538 0.2228 0.9734
vt 0.875000 0.500000
vt 0.625000 0.750000
vt 0.625000 0.500000
vt 0.375000 1.000000
vt 0.375000 0.750000
vt 0.625000 0.000000
vt 0.375000 0.250000
vt 0.375000 0.000000
vt 0.375000 0.500000
vt 0.125000 0.750000
vt 0.125000 0.500000
vt 0.625000 0.250000
vt 0.000000 0.000000
vt 0.875000 0.750000
vt 0.625000 1.000000
s 0
usemtl Material
f 5/1/1 3/2/1 1/3/1
f 3/2/2 8/4/2 4/5/2
f 7/6/3 6/7/3 8/8/3
f 2/9/4 8/10/4 6/11/4
f 2/9/5 3/2/5 4/5/5
f 5/12/6 2/9/6 6/7/6
f 9/8/3 12/12/3 11/7/3
f 12/12/7 15/9/7 11/7/7
f 16/3/5 13/5/5 15/9/5
f 14/2/8 9/4/8 13/5/8
f 15/9/9 9/10/9 11/11/9
f 12/1/1 14/2/1 16/3/1
f 17/13/3 20/13/3 19/13/3
f 20/13/7 23/13/7 19/13/7
f 24/13/5 21/13/5 23/13/5
f 22/13/8 17/13/8 21/13/8
f 23/13/9 17/13/9 19/13/9
f 20/13/1 22/13/1 24/13/1
f 25/13/10 57/13/10 26/13/10
f 26/13/11 57/13/11 27/13/11
f 27/13/12 57/13/12 28/13/12
f 28/13/13 57/13/13 29/13/13
f 29/13/14 57/13/14 30/13/14
f 30/13/15 57/13/15 31/13/15
f 31/13/16 57/13/16 32/13/16
f 32/13/17 57/13/17 33/13/17
f 33/13/18 57/13/18 34/13/18
f 34/13/19 57/13/19 35/13/19
f 35/13/20 57/13/20 36/13/20
f 36/13/21 57/13/21 37/13/21
f 37/13/22 57/13/22 38/13/22
f 38/13/23 57/13/23 39/13/23
f 39/13/24 57/13/24 40/13/24
f 40/13/25 57/13/25 41/13/25
f 41/13/26 57/13/26 42/13/26
f 42/13/27 57/13/27 43/13/27
f 43/13/28 57/13/28 44/13/28
f 44/13/29 57/13/29 45/13/29
f 45/13/30 57/13/30 46/13/30
f 46/13/31 57/13/31 47/13/31
f 47/13/32 57/13/32 48/13/32
f 48/13/33 57/13/33 49/13/33
f 49/13/34 57/13/34 50/13/34
f 50/13/35 57/13/35 51/13/35
f 51/13/36 57/13/36 52/13/36
f 52/13/37 57/13/37 53/13/37
f 53/13/38 57/13/38 54/13/38
f 54/13/39 57/13/39 55/13/39
f 40/13/9 48/13/9 56/13/9
f 55/13/40 57/13/40 56/13/40
f 56/13/41 57/13/41 25/13/41
f 5/1/1 7/14/1 3/2/1
f 3/2/2 7/15/2 8/4/2
f 7/6/3 5/12/3 6/7/3
f 2/9/4 4/5/4 8/10/4
f 2/9/5 1/3/5 3/2/5
f 5/12/6 1/3/6 2/9/6
f 9/8/3 10/6/3 12/12/3
f 12/12/7 16/3/7 15/9/7
f 16/3/5 14/2/5 13/5/5
f 14/2/8 10/15/8 9/4/8
f 15/9/9 13/5/9 9/10/9
f 12/1/1 10/14/1 14/2/1
f 17/13/3 18/13/3 20/13/3
f 20/13/7 24/13/7 23/13/7
f 24/13/5 22/13/5 21/13/5
f 22/13/8 18/13/8 17/13/8
f 23/13/9 21/13/9 17/13/9
f 20/13/1 18/13/1 22/13/1
f 56/13/9 25/13/9 26/13/9
f 26/13/9 27/13/9 28/13/9
f 28/13/9 29/13/9 30/13/9
f 30/13/9 31/13/9 32/13/9
f 32/13/9 33/13/9 34/13/9
f 34/13/9 35/13/9 36/13/9
f 36/13/9 37/13/9 38/13/9
f 38/13/9 39/13/9 40/13/9
f 40/13/9 41/13/9 42/13/9
f 42/13/9 43/13/9 44/13/9
f 44/13/9 45/13/9 46/13/9
f 46/13/9 47/13/9 48/13/9
f 48/13/9 49/13/9 50/13/9
f 50/13/9 51/13/9 52/13/9
f 52/13/9 53/13/9 54/13/9
f 54/13/9 55/13/9 56/13/9
f 56/13/9 26/13/9 28/13/9
f 28/13/9 30/13/9 32/13/9
f 32/13/9 34/13/9 36/13/9
f 36/13/9 38/13/9 40/13/9
f 40/13/9 42/13/9 44/13/9
f 44/13/9 46/13/9 48/13/9
f 48/13/9 50/13/9 52/13/9
f 52/13/9 54/13/9 56/13/9
f 56/13/9 28/13/9 32/13/9
f 32/13/9 36/13/9 40/13/9
f 40/13/9 44/13/9 48/13/9
f 48/13/9 52/13/9 56/13/9
f 56/13/9 32/13/9 40/13/9
