# Blender 4.1.1
# www.blender.org
mtllib enemy.mtl
o 立方体
v -1.000000 -1.000000 1.000000
v -1.000000 0.693240 0.734023
v -1.000000 -1.000000 -1.000000
v -1.000000 0.460300 -0.596347
v 1.000000 -1.000000 1.000000
v 1.000000 0.693240 0.734023
v 1.000000 -1.000000 -1.000000
v 1.000000 0.460300 -0.596347
vn -1.0000 -0.0000 -0.0000
vn -0.0000 0.2664 -0.9639
vn 1.0000 -0.0000 -0.0000
vn -0.0000 0.1552 0.9879
vn -0.0000 -1.0000 -0.0000
vn -0.0000 0.9850 -0.1725
vt 0.375000 0.000000
vt 0.625000 0.250000
vt 0.375000 0.250000
vt 0.375000 0.500000
vt 0.625000 0.500000
vt 0.375000 0.750000
vt 0.625000 0.750000
vt 0.375000 1.000000
vt 0.125000 0.750000
vt 0.125000 0.500000
vt 0.875000 0.500000
vt 0.625000 0.000000
vt 0.625000 1.000000
vt 0.875000 0.750000
s 0
f 1/1/1 4/2/1 3/3/1
f 4/2/2 7/4/2 3/3/2
f 8/5/3 5/6/3 7/4/3
f 6/7/4 1/8/4 5/6/4
f 7/4/5 1/9/5 3/10/5
f 4/11/6 6/7/6 8/5/6
f 1/1/1 2/12/1 4/2/1
f 4/2/2 8/5/2 7/4/2
f 8/5/3 6/7/3 5/6/3
f 6/7/4 2/13/4 1/8/4
f 7/4/5 5/6/5 1/9/5
f 4/11/6 2/14/6 6/7/6
